<svg id="图层_1" data-name="图层 1" xmlns="http://www.w3.org/2000/svg" viewBox="0 0 346.37 392.74"><defs><style>.cls-1{}</style></defs><title>用户管理</title><path class="cls-1" d="M100.52,71.74a139.74,139.74,0,0,0-19.25-6.82A96.72,96.72,0,0,0,138.71-43.35,96.71,96.71,0,0,0,43.89-121,96.71,96.71,0,0,0-50.92-43.35,96.73,96.73,0,0,0,6.51,64.92a141,141,0,0,0-39.46,17.9l-.85.57c-1.26.83-2.52,1.69-3.75,2.57-.79.57-1.59,1.14-2.39,1.77l-.35.23-1.94,1.49c-1.43,1.08-2.85,2.22-4.37,3.51l-1.51,1.25-6.8,5.72.38.19a145.08,145.08,0,0,0-43.67,104v9a40.13,40.13,0,0,0,40,40H66.28A113.82,113.82,0,0,1,100.55,71.54Zm50.83,87.78a15.36,15.36,0,1,0,15.36,15.36,15.37,15.37,0,0,0-15.36-15.36Zm0,0" transform="translate(98.2 121)"/><path class="cls-1" d="M151.35,78.08a96.83,96.83,0,1,0,96.83,96.8,96.84,96.84,0,0,0-96.83-96.8ZM205.2,182.59v.23a11.14,11.14,0,0,1-7.79,8.17l-1.58.37a11.61,11.61,0,0,0-8,13.7l.48,1.63a11.09,11.09,0,0,1-3.17,10.82H185a44.21,44.21,0,0,1-6.42,4.23,52,52,0,0,1-6.91,3.48h-.2a11.6,11.6,0,0,1-3.26.49,11,11,0,0,1-7.74-3.14v-.17l-1-1a11.57,11.57,0,0,0-15.84,0l-1,1.06a11.13,11.13,0,0,1-8,3.28,9.6,9.6,0,0,1-3.4-.57,49.61,49.61,0,0,1-6.82-3.46,47.67,47.67,0,0,1-6.48-4.22l-.18-.18a11.18,11.18,0,0,1-3.17-10.82l.46-1.54a11.62,11.62,0,0,0-1.26-8.57,11.39,11.39,0,0,0-6.68-5.33l-1.4-.32a11.1,11.1,0,0,1-8-8.42,69.74,69.74,0,0,1,0-15.42v-.23a11.1,11.1,0,0,1,7.62-7.71l1.63-.4a11.64,11.64,0,0,0,7.94-13.88l-.49-1.6a11.09,11.09,0,0,1,3.17-10.82h.15a48.53,48.53,0,0,1,6.45-4.25,48.13,48.13,0,0,1,6.88-3.46h.26a11.09,11.09,0,0,1,11,2.66l1.15,1.22a11.65,11.65,0,0,0,15.82,0l1.11-1.2a11,11,0,0,1,7.71-3.14,11.53,11.53,0,0,1,3.25.49h.43a53.76,53.76,0,0,1,6.71,3.45,49.44,49.44,0,0,1,6.43,4.17l.17.17a11.2,11.2,0,0,1,3.17,10.8v.17l-.51,1.51a11.6,11.6,0,0,0,7.88,13.65l1.59.37A11.11,11.11,0,0,1,205,167l.43,5.51v2.43a51.84,51.84,0,0,1-.23,7.68Zm0,0" transform="translate(98.2 121)"/></svg>