<svg id="图层_1" data-name="图层 1" xmlns="http://www.w3.org/2000/svg" viewBox="0 0 370.18 369.75"><defs><style>.cls-1{}</style></defs><title>首页</title><path class="cls-1" d="M240.89,52.21C221.71,29.55,200.08,5,177.19-21c-23.12-26.26-47-53.4-68.84-79.13-27.69-27.44-57.1-27.84-82.47-1-21,23.53-44.87,48.67-68,73C-65.36-3.7-89.41,21.59-110.67,45.46c-14.7,16.72-11.94,30.17-9,36.7,4.64,10.27,15.2,16.41,22.72,16.41h32.78V210c0,18.74,13.35,38.79,33.23,38.79H32.63V138h69.5V248.75h64c12.34,0,33.24-10,33.24-47.46V98.57h24a24.13,24.13,0,0,0,21.85-13.34c5.07-9.9,3.58-22.07-4.34-33Zm0,0" transform="translate(122 121)"/></svg>