<?xml version="1.0" encoding="UTF-8"?>
<svg width="24px" height="24px" viewBox="0 0 24 24" version="1.1" xmlns="http://www.w3.org/2000/svg" xmlns:xlink="http://www.w3.org/1999/xlink">
    <title>icon04</title>
    <g id="icon04" stroke="none" stroke-width="1" fill="none" fill-rule="evenodd">
        <g id="编组-6">
            <rect id="矩形" x="0" y="0" width="24" height="24"></rect>
            <g id="编组-9" transform="translate(3.000000, 1.000000)">
                <path d="M8.85335443,21.6470588 L7.85335443,21.6470588 L2.5,21.6470588 C1.11928813,21.6470588 0,20.5277707 0,19.1470588 L0,2.5 C0,1.11928813 1.11928813,4.61852778e-14 2.5,4.61852778e-14 L13.5,4.61852778e-14 C14.8807119,4.61852778e-14 16,1.11928813 16,2.5 L16,13.4897111" id="路径" stroke="#FFFFFF" stroke-width="1.5" stroke-linecap="round"></path>
                <rect id="矩形" fill="#FFFFFF" transform="translate(16.750000, 21.000000) rotate(-56.000000) translate(-16.750000, -21.000000) " x="16" y="19" width="1.5" height="4" rx="0.75"></rect>
                <path d="M8.25,14 C8.66421356,14 9,14.3357864 9,14.75 C9,15.1642136 8.66421356,15.5 8.25,15.5 L3.75,15.5 C3.33578644,15.5 3,15.1642136 3,14.75 C3,14.3357864 3.33578644,14 3.75,14 L8.25,14 Z M11.25,9 C11.6642136,9 12,9.33578644 12,9.75 C12,10.1642136 11.6642136,10.5 11.25,10.5 L3.75,10.5 C3.33578644,10.5 3,10.1642136 3,9.75 C3,9.33578644 3.33578644,9 3.75,9 L11.25,9 Z M11.25,4 C11.6642136,4 12,4.33578644 12,4.75 C12,5.16421356 11.6642136,5.5 11.25,5.5 L3.75,5.5 C3.33578644,5.5 3,5.16421356 3,4.75 C3,4.33578644 3.33578644,4 3.75,4 L11.25,4 Z" id="形状结合" fill="#FFFFFF"></path>
                <circle id="椭圆形" stroke="#FFFFFF" stroke-width="1.5" cx="13" cy="18" r="3.25"></circle>
            </g>
        </g>
    </g>
</svg>