<?xml version="1.0" encoding="UTF-8"?>
<svg width="21px" height="21px" viewBox="0 0 21 21" version="1.1" xmlns="http://www.w3.org/2000/svg" xmlns:xlink="http://www.w3.org/1999/xlink">
    <title>icon01</title>
    <defs>
        <filter id="filter-1">
            <feColorMatrix in="SourceGraphic" type="matrix" values="0 0 0 0 1.000000 0 0 0 0 1.000000 0 0 0 0 1.000000 0 0 0 1.000000 0"></feColorMatrix>
        </filter>
    </defs>
    <g id="icon01" stroke="none" stroke-width="1" fill="none" fill-rule="evenodd">
        <g filter="url(#filter-1)" id="编组-7">
            <g transform="translate(2.000000, 1.000000)">
                <path d="M5,11 C6.1045695,11 7,11.8954305 7,13 L7,16 C7,17.1045695 6.1045695,18 5,18 L2,18 C0.8954305,18 -8.67738547e-17,17.1045695 0,16 L0,13 C-3.57315355e-16,11.8954305 0.8954305,11 2,11 L5,11 Z M15,11 C16.1045695,11 17,11.8954305 17,13 L17,16 C17,17.1045695 16.1045695,18 15,18 L12,18 C10.8954305,18 10,17.1045695 10,16 L10,13 C10,11.8954305 10.8954305,11 12,11 L15,11 Z M5,1 C6.1045695,1 7,1.8954305 7,3 L7,6 C7,7.1045695 6.1045695,8 5,8 L2,8 C0.8954305,8 -8.67738547e-17,7.1045695 0,6 L0,3 C-3.57315355e-16,1.8954305 0.8954305,1 2,1 L5,1 Z M15.0104076,0.914213562 L16.7781746,2.68198052 C17.5592232,3.4630291 17.5592232,4.72935906 16.7781746,5.51040764 L15.0104076,7.27817459 C14.2293591,8.05922318 12.9630291,8.05922318 12.1819805,7.27817459 L10.4142136,5.51040764 C9.63316498,4.72935906 9.63316498,3.4630291 10.4142136,2.68198052 L12.1819805,0.914213562 C12.9630291,0.133164979 14.2293591,0.133164979 15.0104076,0.914213562 Z" id="形状结合" stroke="#1AD9E2" stroke-width="1.5"></path>
            </g>
        </g>
    </g>
</svg>