<svg id="图层_1" data-name="图层 1" xmlns="http://www.w3.org/2000/svg" viewBox="0 0 324.71 365.15"><defs><style>.cls-1{}</style></defs><title>日志查询</title><path class="cls-1" d="M-35.81,231.62l-38.93-39.26A84.2,84.2,0,0,0-99.16,75.82a84.2,84.2,0,0,0-116.55,24.41,84.19,84.19,0,0,0,24.42,116.55,84.12,84.12,0,0,0,46.22,13.7,83.8,83.8,0,0,0,46.48-14.19l39,39.22a12.48,12.48,0,0,0,17.61,0l6.24-6.28a12.62,12.62,0,0,0,0-17.73Zm-63.76-64.16A51,51,0,0,1-129,193.83a40.27,40.27,0,0,1-16.23,2.82A51.34,51.34,0,0,1-197.29,146,51.37,51.37,0,0,1-146.62,94a51.3,51.3,0,0,1,52,50.64,51.2,51.2,0,0,1-5.05,22.91Zm-155.64-6h-41.26a13,13,0,0,1-12.43-13.46,13,13,0,0,1,12.43-12.43h40.6a110.75,110.75,0,0,1,8.73-34.49h-49.29a13,13,0,0,1-12.43-13.45,13,13,0,0,1,12.43-12.44h64.94a110.44,110.44,0,0,1,48.35-34.48H-296.43a12.91,12.91,0,0,1-12.92-13,12.93,12.93,0,0,1,12.92-12.92H-98.51a12.91,12.91,0,0,1,12.92,13A12.93,12.93,0,0,1-98.51,40.76h-9.7a111.25,111.25,0,0,1,70.07,78.51v-186a39.21,39.21,0,0,0-39-39.26h-240.8a39.19,39.19,0,0,0-38.93,39.22V213.28a39.2,39.2,0,0,0,39,39.21h141.21a111.3,111.3,0,0,1-78.55-91Zm-41.26-207h198A13,13,0,0,1-86.08-32,13,13,0,0,1-98.51-19.62h-198A13,13,0,0,1-308.9-33.07,13,13,0,0,1-296.47-45.5Zm0,0" transform="translate(356.84 106)"/></svg>