<?xml version="1.0" encoding="UTF-8"?>
<svg width="24px" height="24px" viewBox="0 0 24 24" version="1.1" xmlns="http://www.w3.org/2000/svg" xmlns:xlink="http://www.w3.org/1999/xlink">
    <title>icon02</title>
    <g id="icon02" stroke="none" stroke-width="1" fill="none" fill-rule="evenodd">
        <g id="编组-6">
            <rect id="矩形" x="0" y="0" width="24" height="24"></rect>
            <path d="M12,1.75 C13.1736051,1.75 14.2361051,2.22569745 15.0052038,2.99479618 C15.7743025,3.76389491 16.25,4.82639491 16.25,6 C16.25,6.77693626 16.0417522,7.50527522 15.6775584,8.13191672 C15.3000306,8.78150116 14.7554195,9.32197013 14.1025656,9.69446053 L14.1025656,9.69446053 L12.5531294,10.5785023 L14.2687812,11.0671958 C16.0158333,11.5648335 17.5259139,12.6248218 18.5919123,14.038492 C19.6329757,15.4190948 20.25,17.137517 20.25,19 C20.25,19.3683321 20.0871532,19.6882855 19.8249366,19.971284 C19.4565635,20.3688524 18.9079278,20.6939747 18.2481712,20.9672548 C16.6051157,21.6478306 14.3011001,21.9779221 12,21.9779221 C9.69889991,21.9779221 7.39488425,21.6478306 5.75182882,20.9672548 C5.09207217,20.6939747 4.54343648,20.3688524 4.17506342,19.971284 C3.91284683,19.6882855 3.75,19.3683321 3.75,19 C3.75,17.1375483 4.36700641,15.4191552 5.40808979,14.0383755 C6.47422496,12.6243698 7.98457245,11.5639072 9.7320328,11.065452 L9.7320328,11.065452 L11.4489897,10.5756978 L9.89733572,9.69242544 C9.24454302,9.320826 8.70006543,8.78096765 8.32260518,8.13188903 C7.9582781,7.50539413 7.75,6.77699793 7.75,6 C7.75,4.82639491 8.22569745,3.76389491 8.99479618,2.99479618 C9.76389491,2.22569745 10.8263949,1.75 12,1.75 Z" id="形状结合" stroke="#FFFFFF" stroke-width="1.5"></path>
        </g>
    </g>
</svg>